<svg width="226" height="34" viewBox="0 0 226 34" fill="none" xmlns="http://www.w3.org/2000/svg">
<path d="M27.1406 28.6562V34H0.210938V0.976562H26.1797V6.32031H7.125V14.6172H24.75V19.9609H7.125V28.6562H27.1406ZM67.6631 0.976562L55.5225 34H48.5147L36.3037 0.976562H43.5225L50.3194 22.1875C50.5381 22.875 50.7881 23.7422 51.0694 24.7891C51.3662 25.8203 51.6944 27.0312 52.0537 28.4219C52.5694 26.4688 52.9366 25.0547 53.1553 24.1797C53.3897 23.3047 53.585 22.6406 53.7412 22.1875L60.5147 0.976562H67.6631ZM102.795 28.6562V34H78.1622V0.976562H85.0762V28.6562H102.795ZM141.396 28.6562V34H114.466V0.976562H140.435V6.32031H121.38V14.6172H139.005V19.9609H121.38V28.6562H141.396ZM160.356 21.4609V34H153.442V0.976562H169.942C173.879 0.976562 176.918 1.82812 179.059 3.53125C181.199 5.21875 182.27 7.64844 182.27 10.8203C182.27 13.1328 181.613 15.1328 180.301 16.8203C178.988 18.4922 177.215 19.5938 174.981 20.125L183.91 34H176.129L168.465 21.4609H160.356ZM175.309 11.1016C175.309 9.52344 174.801 8.33594 173.785 7.53906C172.77 6.74219 171.246 6.34375 169.215 6.34375H160.356V16.0938H169.402C171.34 16.0938 172.809 15.6562 173.809 14.7812C174.809 13.9062 175.309 12.6797 175.309 11.1016Z" fill="black"/>
<path d="M202.003 21.4609V34H195.089V0.976562H211.589C215.527 0.976562 218.566 1.82812 220.706 3.53125C222.847 5.21875 223.917 7.64844 223.917 10.8203C223.917 13.1328 223.261 15.1328 221.948 16.8203C220.636 18.4922 218.863 19.5938 216.628 20.125L225.558 34H217.777L210.113 21.4609H202.003ZM216.956 11.1016C216.956 9.52344 216.448 8.33594 215.433 7.53906C214.417 6.74219 212.894 6.34375 210.863 6.34375H202.003V16.0938H211.05C212.988 16.0938 214.456 15.6562 215.456 14.7812C216.456 13.9062 216.956 12.6797 216.956 11.1016Z" fill="#FD0909"/>
</svg>
